<svg xmlns="http://www.w3.org/2000/svg" xmlns:svg="http://www.w3.org/2000/svg" id="GraphQL_Logo" x="0" y="0" enable-background="new 0 0 400 400" version="1.1" viewBox="0 0 400 400" xml:space="preserve"><metadata id="metadata3597"/><path id="path3649" d="m 147.21311,152.36087 c 13.90544,-0.0667 28.16555,4.35142 38.97334,14.30603 5.53826,4.9639 10.01169,11.19172 13.8109,17.82267 6.83592,-12.23587 16.82107,-22.63257 29.13432,-27.64407 15.00465,-6.23731 31.96476,-5.8065 46.94364,0.30711 13.08353,5.28918 24.52338,14.50675 34.89834,24.64391 8.11638,7.93376 15.62731,16.61497 23.98587,24.25202 4.40469,3.95693 9.13749,7.66472 14.55465,9.71499 7.19921,2.72159 15.71403,0.15398 20.86246,-5.98817 4.76795,-5.74855 4.47343,-15.68501 -0.77892,-20.93525 -3.33981,-3.19133 -9.05074,-2.54943 -11.41402,1.70423 -2.06719,3.37385 -0.90781,7.57994 0.71093,10.84741 -4.30155,-3.47768 -8.61012,-8.32653 -8.59373,-14.65036 -0.89062,-7.31089 4.00702,-13.76017 9.87341,-16.31825 11.44842,-5.06944 25.80385,-0.69899 33.02962,10.46331 6.94842,10.41572 7.50154,24.10755 6.2906,36.51557 -1.46249,11.78602 -7.4156,22.78654 -16.24215,29.60866 -12.39059,9.79286 -28.09681,12.82933 -43.04051,12.61911 -14.36403,-0.43168 -28.58117,-4.02441 -41.88974,-9.96586 -22.25541,-9.90705 -43.08348,-23.59974 -66.06626,-31.51362 -7.62341,-3.27695 -15.73121,-5.04954 -23.88275,-5.59628 -6.48982,-0.0475 -12.64216,-0.38323 -18.76872,0.0771 -7.47653,0.79588 -14.90932,2.49146 -21.9093,5.52794 -23.37183,8.04968 -44.5116,22.08668 -67.19125,32.01363 -19.149955,8.24951 -40.367093,12.08274 -60.69282,7.50209 -11.370292,-2.54858 -22.689013,-8.11545 -30.3639916,-18.03288 -6.567952,-8.43206 -9.71716,-19.71891 -9.40701,-30.77654 -0.363279,-10.43474 1.704681,-21.52092 7.935145,-29.64674 5.7968496,-7.70278 15.1343286,-11.61213 24.0991536,-10.74965 5.771081,0.29672 11.621061,3.08495 15.1859,8.2305 2.803902,4.07199 2.976556,9.64924 1.747651,14.41073 -1.496871,4.28308 -4.585926,7.62752 -7.942946,10.19512 1.713275,-3.20084 2.751549,-7.42597 0.726555,-10.77042 -2.492175,-4.45522 -8.627318,-4.90505 -11.87184,-1.24573 -3.997649,4.55213 -4.837487,11.98758 -2.154687,17.56399 2.907024,5.84543 8.921857,9.1795 14.744498,9.85946 8.809349,0.84347 16.449964,-5.20268 22.914,-11.06626 13.377314,-12.75407 25.421811,-27.34646 40.262422,-38.13591 12.2359,-9.08347 26.6515,-15.22563 41.52646,-15.14864 z" style="fill:#423426"/></svg>